<?xml version="1.0" encoding="UTF-8" standalone="no"?>
<!DOCTYPE svg PUBLIC "-//W3C//DTD SVG 1.1//EN" "http://www.w3.org/Graphics/SVG/1.1/DTD/svg11.dtd">
<svg width="100%" height="100%" viewBox="0 0 491 415" version="1.1" xmlns="http://www.w3.org/2000/svg" xmlns:xlink="http://www.w3.org/1999/xlink" xml:space="preserve" xmlns:serif="http://www.serif.com/" style="fill-rule:evenodd;clip-rule:evenodd;stroke-linejoin:round;stroke-miterlimit:2;">
    <g transform="matrix(1,0,0,1,-2540.71139,-1184.560264)">
        <g transform="matrix(2.133747,0,0,2.133747,-3179.249802,-1683.623515)">
            <path d="M2719.793,1445.317C2719.631,1444.822 2719.478,1444.326 2719.333,1443.83C2714.305,1426.558 2719.102,1409.329 2738.574,1399.328C2775.679,1380.272 2801.502,1380.594 2816.09,1387.585C2828.046,1393.314 2833.658,1403.42 2833.635,1413.589C2833.611,1424.143 2827.378,1435.252 2814.331,1441.72C2793.808,1451.894 2771.753,1458.959 2746.947,1460.457C2756.615,1469.799 2770.292,1476.686 2785.409,1477.511C2793.783,1477.968 2799.559,1477.388 2803.673,1475.873C2804.414,1475.349 2805.26,1474.952 2806.186,1474.723C2806.692,1474.437 2807.167,1474.132 2807.612,1473.807C2811.543,1470.941 2812.933,1466.762 2814.781,1462.827C2817.137,1457.812 2819.829,1452.962 2824.582,1449.054C2831.243,1443.577 2842.404,1439.55 2864.664,1441.529C2868.787,1441.896 2871.837,1445.541 2871.471,1449.664C2871.104,1453.787 2867.459,1456.837 2863.336,1456.471C2847.221,1455.037 2838.931,1456.675 2834.109,1460.64C2829.162,1464.707 2827.981,1470.599 2825.209,1475.632C2823.112,1479.439 2820.489,1482.952 2816.573,1485.838C2820.665,1500.366 2830.759,1513.351 2847.282,1524.843C2850.681,1527.206 2851.521,1531.884 2849.157,1535.282C2846.794,1538.681 2842.116,1539.521 2838.718,1537.157C2819.471,1523.772 2807.81,1508.443 2802.623,1491.58C2797.807,1492.504 2791.91,1492.888 2784.591,1492.489C2760.605,1491.18 2739.695,1477.555 2727.883,1460.997C2707.319,1460.078 2693.351,1453.701 2686.318,1442.684C2680.153,1433.027 2678.73,1419.275 2683.77,1401.005C2686.809,1389.991 2695.769,1377.552 2709.507,1367.166C2739.712,1344.331 2793.227,1330.762 2850.795,1364.531C2884.823,1384.492 2901.62,1406.401 2907.636,1426.071C2922.96,1476.171 2871.426,1513.863 2835.056,1491.379C2831.535,1489.203 2830.444,1484.577 2832.621,1481.056C2834.797,1477.535 2839.423,1476.444 2842.944,1478.621C2853.763,1485.309 2866.405,1484.055 2876.487,1477.876C2902.496,1461.938 2909.715,1416.483 2843.205,1377.469C2792.42,1347.679 2745.199,1358.986 2718.553,1379.132C2707.924,1387.167 2700.581,1396.473 2698.23,1404.995C2694.654,1417.957 2694.587,1427.761 2698.962,1434.613C2701.985,1439.349 2707.131,1442.341 2713.979,1444.139C2715.808,1444.619 2717.746,1445.011 2719.793,1445.317ZM2736.27,1446.1C2739.156,1446.008 2742.174,1445.816 2745.322,1445.531C2745.405,1445.523 2745.488,1445.517 2745.571,1445.512C2768.462,1444.201 2788.767,1437.651 2807.669,1428.28C2816.763,1423.772 2820.666,1415.577 2817.609,1408.716C2815.103,1403.092 2808.465,1399.127 2798.283,1398.28C2785.537,1397.219 2768.002,1401.077 2745.426,1412.672C2733.622,1418.734 2730.687,1429.167 2733.735,1439.638C2734.366,1441.803 2735.217,1443.966 2736.27,1446.1Z" style="fill:rgb(107,141,242);"/>
        </g>
    </g>
</svg>
